# xmcd
#
# Track frame offsets: 
#        150
#        25613
#        43490
#        57942
#        73570
#        97209
#        113417
#        133884
#        155383
#
# Disc length: 2154 seconds
#
# Revision: 0
# Processed by: cddbd v1.5.2PL0 Copyright (c) Steve Scherf et al.
# Submitted via: ExactAudioCopy v1.0b3
#
DISCID=7a086809
DTITLE=Doctor J. - Acoustified
DYEAR=2001
DGENRE=Blues
TTITLE0=Steely
TTITLE1=Hometown Days
TTITLE2=Rodeo Rock
TTITLE3=The Big Easy Shuffle
TTITLE4=Late Nite Theme
TTITLE5=Fun Key
TTITLE6=California Fall
TTITLE7=Doc's Vision
TTITLE8=Acoustified
EXTD=
EXTT0=
EXTT1=
EXTT2=
EXTT3=
EXTT4=
EXTT5=
EXTT6=
EXTT7=
EXTT8=
PLAYORDER=
